<svg width="38" height="43" viewBox="0 0 38 43" fill="none" xmlns="http://www.w3.org/2000/svg">
<path d="M4.74569 27.1025C4.74569 27.7318 4.49569 28.3353 4.0507 28.7803C3.6057 29.2253 3.00216 29.4753 2.37284 29.4753C1.74353 29.4753 1.13998 29.2253 0.69499 28.7803C0.249996 28.3353 0 27.7318 0 27.1025V16.4247C0 15.7954 0.249996 15.1918 0.69499 14.7468C1.13998 14.3018 1.74353 14.0518 2.37284 14.0518C3.00216 14.0518 3.6057 14.3018 4.0507 14.7468C4.49569 15.1918 4.74569 15.7954 4.74569 16.4247V27.1025ZM37.9655 27.1025C37.9655 27.7318 37.7155 28.3353 37.2705 28.7803C36.8255 29.2253 36.222 29.4753 35.5926 29.4753C34.9633 29.4753 34.3598 29.2253 33.9148 28.7803C33.4698 28.3353 33.2198 27.7318 33.2198 27.1025V16.4247C33.2198 15.7954 33.4698 15.1918 33.9148 14.7468C34.3598 14.3018 34.9633 14.0518 35.5926 14.0518C36.222 14.0518 36.8255 14.3018 37.2705 14.7468C37.7155 15.1918 37.9655 15.7954 37.9655 16.4247V27.1025ZM16.6099 40.1519C16.6099 40.7812 16.3599 41.3848 15.9149 41.8298C15.4699 42.2748 14.8664 42.5248 14.2371 42.5248C13.6077 42.5248 13.0042 42.2748 12.5592 41.8298C12.1142 41.3848 11.8642 40.7812 11.8642 40.1519V29.4741C11.8642 28.8448 12.1142 28.2413 12.5592 27.7963C13.0042 27.3513 13.6077 27.1013 14.2371 27.1013C14.8664 27.1013 15.4699 27.3513 15.9149 27.7963C16.3599 28.2413 16.6099 28.8448 16.6099 29.4741V40.1519ZM26.1013 40.1519C26.1013 40.7812 25.8513 41.3848 25.4063 41.8298C24.9613 42.2748 24.3577 42.5248 23.7284 42.5248C23.0991 42.5248 22.4956 42.2748 22.0506 41.8298C21.6056 41.3848 21.3556 40.7812 21.3556 40.1519V29.4741C21.3556 28.8448 21.6056 28.2413 22.0506 27.7963C22.4956 27.3513 23.0991 27.1013 23.7284 27.1013C24.3577 27.1013 24.9613 27.3513 25.4063 27.7963C25.8513 28.2413 26.1013 28.8448 26.1013 29.4741V40.1519Z" fill="#7CB342"/>
<path d="M7.11852 14.0518V31.847C7.11852 32.4763 7.36851 33.0798 7.81351 33.5248C8.2585 33.9698 8.86204 34.2198 9.49136 34.2198H28.4741C29.1034 34.2198 29.707 33.9698 30.152 33.5248C30.5969 33.0798 30.8469 32.4763 30.8469 31.847V14.0518H7.11852ZM18.9827 2.18643C11.8642 2.18643 7.52783 6.51094 7.11852 11.6778H30.8469C30.4364 6.51094 26.1013 2.18643 18.9827 2.18643ZM14.237 8.82802C13.9224 8.82802 13.6206 8.70302 13.3981 8.48052C13.1756 8.25803 13.0506 7.95626 13.0506 7.6416C13.0506 7.32694 13.1756 7.02517 13.3981 6.80267C13.6206 6.58017 13.9224 6.45518 14.237 6.45518C14.5517 6.45518 14.8535 6.58017 15.076 6.80267C15.2985 7.02517 15.4235 7.32694 15.4235 7.6416C15.4235 7.95626 15.2985 8.25803 15.076 8.48052C14.8535 8.70302 14.5517 8.82802 14.237 8.82802ZM23.7284 8.82802C23.4138 8.82802 23.112 8.70302 22.8895 8.48052C22.667 8.25803 22.542 7.95626 22.542 7.6416C22.542 7.32694 22.667 7.02517 22.8895 6.80267C23.112 6.58017 23.4138 6.45518 23.7284 6.45518C24.0431 6.45518 24.3448 6.58017 24.5673 6.80267C24.7898 7.02517 24.9148 7.32694 24.9148 7.6416C24.9148 7.95626 24.7898 8.25803 24.5673 8.48052C24.3448 8.70302 24.0431 8.82802 23.7284 8.82802Z" fill="#7CB342"/>
<path d="M26.1014 1L24.1248 3.96487M11.8643 1L13.4458 3.47013" stroke="#7CB342" stroke-width="2" stroke-linecap="round"/>
</svg>
