<svg width="39" height="38" viewBox="0 0 39 38" fill="none" xmlns="http://www.w3.org/2000/svg">
<path d="M33.9286 29.8571C33.324 29.8599 32.7279 29.9991 32.1847 30.2643L26.3489 24.4286H21.7143V27.1429H25.2239L30.2657 32.1846C30.0002 32.7279 29.8606 33.324 29.8572 33.9286C29.8572 34.7338 30.0959 35.521 30.5433 36.1905C30.9907 36.8601 31.6266 37.3819 32.3705 37.6901C33.1145 37.9982 33.9331 38.0789 34.7229 37.9218C35.5127 37.7647 36.2381 37.3769 36.8075 36.8075C37.3769 36.2381 37.7647 35.5126 37.9218 34.7229C38.0789 33.9331 37.9982 33.1145 37.6901 32.3705C37.3819 31.6265 36.8601 30.9907 36.1905 30.5433C35.521 30.0959 34.7338 29.8571 33.9286 29.8571ZM33.9286 35.2857C33.6602 35.2857 33.3978 35.2061 33.1746 35.057C32.9514 34.9079 32.7775 34.6959 32.6747 34.4479C32.572 34.1999 32.5451 33.9271 32.5975 33.6638C32.6499 33.4005 32.7791 33.1587 32.9689 32.9689C33.1587 32.7791 33.4006 32.6499 33.6638 32.5975C33.9271 32.5451 34.1999 32.572 34.4479 32.6747C34.6959 32.7775 34.9079 32.9514 35.057 33.1746C35.2061 33.3978 35.2857 33.6602 35.2857 33.9286C35.2857 34.2885 35.1427 34.6337 34.8882 34.8882C34.6337 35.1427 34.2885 35.2857 33.9286 35.2857ZM33.9286 14.9286C33.0893 14.9311 32.2713 15.1933 31.587 15.6793C30.9028 16.1653 30.3857 16.8512 30.1069 17.6429H21.7143V20.3571H30.1069C30.3569 21.059 30.795 21.6787 31.3734 22.1484C31.9518 22.6181 32.6481 22.9198 33.3863 23.0205C34.1246 23.1213 34.8763 23.0171 35.5594 22.7195C36.2424 22.4219 36.8306 21.9423 37.2595 21.333C37.6884 20.7238 37.9416 20.0084 37.9914 19.265C38.0412 18.5216 37.8857 17.7788 37.5419 17.1177C37.1981 16.4567 36.6793 15.9029 36.042 15.5168C35.4048 15.1307 34.6737 14.9272 33.9286 14.9286ZM33.9286 20.3571C33.6602 20.3571 33.3978 20.2775 33.1746 20.1284C32.9514 19.9793 32.7775 19.7673 32.6747 19.5194C32.572 19.2714 32.5451 18.9985 32.5975 18.7352C32.6499 18.472 32.7791 18.2302 32.9689 18.0404C33.1587 17.8506 33.4006 17.7213 33.6638 17.6689C33.9271 17.6166 34.1999 17.6434 34.4479 17.7462C34.6959 17.8489 34.9079 18.0228 35.057 18.246C35.2061 18.4692 35.2857 18.7316 35.2857 19C35.2857 19.3599 35.1427 19.7051 34.8882 19.9596C34.6337 20.2142 34.2885 20.3571 33.9286 20.3571ZM33.9286 1.707e-06C32.8491 0.00107957 31.8141 0.430379 31.0508 1.19369C30.2875 1.95699 29.8582 2.99195 29.8572 4.07143C29.8618 4.72158 30.0238 5.36093 30.3294 5.93479L25.2374 10.8571H21.7143V13.5714H26.334L32.3054 7.80086C32.8601 8.04275 33.4618 8.1579 34.0666 8.13793C34.6714 8.11795 35.2642 7.96336 35.8017 7.68541C36.3393 7.40746 36.8081 7.01313 37.174 6.53115C37.5399 6.04916 37.7938 5.49165 37.917 4.89918C38.0403 4.30672 38.0299 3.69423 37.8866 3.10629C37.7433 2.51835 37.4707 1.96976 37.0887 1.50046C36.7066 1.03116 36.2247 0.652968 35.678 0.393406C35.1314 0.133843 34.5337 -0.000552486 33.9286 1.707e-06ZM33.9286 5.42857C33.6602 5.42857 33.3978 5.34898 33.1746 5.19985C32.9514 5.05073 32.7775 4.83877 32.6747 4.59079C32.572 4.3428 32.5451 4.06992 32.5975 3.80666C32.6499 3.5434 32.7791 3.30159 32.9689 3.11179C33.1587 2.92199 33.4006 2.79273 33.6638 2.74036C33.9271 2.688 34.1999 2.71487 34.4479 2.81759C34.6959 2.92031 34.9079 3.09426 35.057 3.31744C35.2061 3.54062 35.2857 3.80301 35.2857 4.07143C35.2857 4.43137 35.1427 4.77656 34.8882 5.03107C34.6337 5.28559 34.2885 5.42857 33.9286 5.42857Z" fill="#EEE2E2"/>
<path d="M21.7143 5.42852H24.4286V2.71423H21.7143C20.9409 2.71682 20.1771 2.88563 19.4746 3.20923C18.7721 3.53283 18.1474 4.00366 17.6429 4.5898C17.1383 4.00366 16.5136 3.53283 15.8111 3.20923C15.1087 2.88563 14.3448 2.71682 13.5714 2.71423H12.2143C8.97596 2.71783 5.87129 4.00584 3.58145 6.29568C1.2916 8.58553 0.00359216 11.6902 0 14.9285V23.0714C0.00359216 26.3097 1.2916 29.4144 3.58145 31.7042C5.87129 33.9941 8.97596 35.2821 12.2143 35.2857H13.5714C14.3448 35.2831 15.1087 35.1143 15.8111 34.7907C16.5136 34.4671 17.1383 33.9962 17.6429 33.4101C18.1474 33.9962 18.7721 34.4671 19.4746 34.7907C20.1771 35.1143 20.9409 35.2831 21.7143 35.2857H24.4286V32.5714H21.7143C20.9946 32.5707 20.3047 32.2845 19.7958 31.7756C19.2869 31.2667 19.0007 30.5767 19 29.8571V8.1428C19.0007 7.42315 19.2869 6.73318 19.7958 6.22431C20.3047 5.71544 20.9946 5.42924 21.7143 5.42852ZM13.5714 32.5714H12.2143C9.93217 32.5673 7.72767 31.7424 6.00343 30.2474C4.27919 28.7524 3.15027 26.687 2.82286 24.4285H5.42857V21.7142H2.71429V16.2857H6.78571C7.86519 16.2846 8.90015 15.8553 9.66346 15.092C10.4268 14.3287 10.8561 13.2937 10.8571 12.2142V9.49995H8.14286V12.2142C8.14286 12.5742 7.99987 12.9194 7.74536 13.1739C7.49085 13.4284 7.14565 13.5714 6.78571 13.5714H2.82286C3.15027 11.3129 4.27919 9.24749 6.00343 7.75249C7.72767 6.25748 9.93217 5.4326 12.2143 5.42852H13.5714C14.2911 5.42924 14.9811 5.71544 15.4899 6.22431C15.9988 6.73318 16.285 7.42315 16.2857 8.1428V13.5714H13.5714V16.2857H16.2857V21.7142H13.5714C12.4919 21.7153 11.457 22.1446 10.6937 22.9079C9.93038 23.6712 9.50108 24.7062 9.5 25.7857V28.4999H12.2143V25.7857C12.2143 25.4257 12.3573 25.0805 12.6118 24.826C12.8663 24.5715 13.2115 24.4285 13.5714 24.4285H16.2857V29.8571C16.285 30.5767 15.9988 31.2667 15.4899 31.7756C14.9811 32.2845 14.2911 32.5707 13.5714 32.5714Z" fill="#EEE2E2"/>
</svg>
