<svg width="58" height="57" viewBox="0 0 58 57" fill="none" xmlns="http://www.w3.org/2000/svg">
<path d="M0 35.681C1.95742 35.5914 3.61371 34.8449 4.96885 33.4416C6.32399 32.0382 7.01661 30.3662 7.01661 28.4254C7.01661 30.3662 7.67913 32.0382 9.03427 33.4416C10.3894 34.8449 12.0457 35.5914 14.0031 35.681C12.0457 35.7706 10.3894 36.517 9.03427 37.9204C8.3791 38.5819 7.86328 39.3662 7.51688 40.2274C7.17048 41.0886 7.00042 42.0096 7.01661 42.9366C7.01661 40.9958 6.3541 39.3237 4.96885 37.9204C3.61371 36.517 1.95742 35.7706 0 35.681ZM7.01661 14.1828C10.811 14.0037 14.0332 12.5406 16.6833 9.79361C19.3333 7.04662 20.6584 3.79204 20.6584 0C20.6584 3.79204 21.9834 7.04662 24.6334 9.79361C27.2835 12.5406 30.5057 13.9738 34.3302 14.1828C31.8307 14.3023 29.5421 14.989 27.4341 16.3028C25.3562 17.5867 23.6999 19.3185 22.4652 21.4683C21.2606 23.6181 20.6584 25.9172 20.6584 28.4254C20.6584 24.6333 19.3333 21.3489 16.6833 18.6019C14.0332 15.825 10.811 14.362 7.01661 14.1828ZM17.0145 46.3405C19.8754 46.2211 22.3146 45.1163 24.3022 43.0561C26.2897 40.9958 27.2835 38.5474 27.2835 35.681C27.2835 38.5474 28.2773 40.9958 30.2648 43.0561C32.2523 45.1163 34.6615 46.2211 37.5223 46.3405C34.6615 46.4599 32.2523 47.5647 30.2648 49.6249C28.2773 51.6852 27.2835 54.1336 27.2835 57C27.2835 54.1336 26.2897 51.6852 24.3022 49.6249C22.4026 47.6233 19.7846 46.4434 17.0145 46.3405ZM37.5223 32.1875C40.3832 32.0681 42.7923 30.9633 44.7799 28.9031C46.7674 26.8429 47.7311 24.3944 47.7311 21.4982C47.7311 24.3646 48.7248 26.813 50.7124 28.8732C52.6999 30.9335 55.1391 32.0382 58 32.1577C55.1391 32.2771 52.6999 33.3819 50.7124 35.4421C48.7248 37.5024 47.7311 39.9508 47.7311 42.8172C47.7311 39.9508 46.7373 37.5024 44.7799 35.4421C42.7923 33.4117 40.3832 32.307 37.5223 32.1875Z" fill="white"/>
</svg>
