<svg width="14" height="16" viewBox="0 0 14 16" fill="none" xmlns="http://www.w3.org/2000/svg">
<path d="M7 7.6C6.4 7.6 6 8 6 8.6C6 9 6.3 9.3 6.6 9.4L6.3 10.8H7.6L7.3 9.4C7.7 9.3 7.9 9 7.9 8.6C8 8 7.6 7.6 7 7.6ZM7.1 3.3C6.4 3.3 5.7 3.8 5.7 4.5V6H8.4V4.5C8.3 3.8 7.8 3.3 7.1 3.3ZM7 0L0 3V6C0.1 10.4 2.9 14.3 7 15.9C11.1 14.3 13.9 10.4 14 6V3L7 0ZM11 11C11 11.6 10.6 12 10 12H4C3.4 12 3 11.6 3 11V7C3 6.4 3.4 6 4 6H4.3V4.5C4.4 3.1 5.6 2 7 2C8.4 2 9.6 3.1 9.7 4.5V6H10C10.6 6 11 6.4 11 7V11Z" fill="white"/>
</svg>
